<svg width="107" height="27" viewBox="0 0 107 27" fill="none" xmlns="http://www.w3.org/2000/svg">
<path d="M0.858 12.798C0.858 11.3073 1.16133 10.0073 1.768 8.898C2.37467 7.77133 3.21533 6.90467 4.29 6.298C5.36467 5.674 6.59533 5.362 7.982 5.362C9.76733 5.362 11.2407 5.81267 12.402 6.714C13.5807 7.598 14.3693 8.846 14.768 10.458H10.842C10.634 9.834 10.2787 9.34867 9.776 9.002C9.29067 8.638 8.684 8.456 7.956 8.456C6.916 8.456 6.09267 8.83733 5.486 9.6C4.87933 10.3453 4.576 11.4113 4.576 12.798C4.576 14.1673 4.87933 15.2333 5.486 15.996C6.09267 16.7413 6.916 17.114 7.956 17.114C9.42933 17.114 10.3913 16.4553 10.842 15.138H14.768C14.3693 16.698 13.5807 17.9373 12.402 18.856C11.2233 19.7747 9.75 20.234 7.982 20.234C6.59533 20.234 5.36467 19.9307 4.29 19.324C3.21533 18.7 2.37467 17.8333 1.768 16.724C1.16133 15.5973 0.858 14.2887 0.858 12.798ZM24.7666 5.388C25.8586 5.388 26.8293 5.63067 27.6786 6.116C28.528 6.584 29.1866 7.286 29.6546 8.222C30.14 9.14067 30.3826 10.25 30.3826 11.55V20H26.7426V12.044C26.7426 10.9 26.4566 10.0247 25.8846 9.418C25.3126 8.794 24.5326 8.482 23.5446 8.482C22.5393 8.482 21.742 8.794 21.1526 9.418C20.5806 10.0247 20.2946 10.9 20.2946 12.044V20H16.6546V0.76H20.2946V7.39C20.7626 6.766 21.3866 6.28067 22.1666 5.934C22.9466 5.57 23.8133 5.388 24.7666 5.388ZM32.1281 12.746C32.1281 11.29 32.4141 9.99867 32.9861 8.872C33.5754 7.74533 34.3641 6.87867 35.3521 6.272C36.3574 5.66533 37.4754 5.362 38.7061 5.362C39.7807 5.362 40.7167 5.57867 41.5141 6.012C42.3287 6.44533 42.9787 6.99133 43.4641 7.65V5.596H47.1301V20H43.4641V17.894C42.9961 18.57 42.3461 19.1333 41.5141 19.584C40.6994 20.0173 39.7547 20.234 38.6801 20.234C37.4667 20.234 36.3574 19.922 35.3521 19.298C34.3641 18.674 33.5754 17.7987 32.9861 16.672C32.4141 15.528 32.1281 14.2193 32.1281 12.746ZM43.4641 12.798C43.4641 11.914 43.2907 11.16 42.9441 10.536C42.5974 9.89467 42.1294 9.40933 41.5401 9.08C40.9507 8.73333 40.3181 8.56 39.6421 8.56C38.9661 8.56 38.3421 8.72467 37.7701 9.054C37.1981 9.38333 36.7301 9.86867 36.3661 10.51C36.0194 11.134 35.8461 11.8793 35.8461 12.746C35.8461 13.6127 36.0194 14.3753 36.3661 15.034C36.7301 15.6753 37.1981 16.1693 37.7701 16.516C38.3594 16.8627 38.9834 17.036 39.6421 17.036C40.3181 17.036 40.9507 16.8713 41.5401 16.542C42.1294 16.1953 42.5974 15.71 42.9441 15.086C43.2907 14.4447 43.4641 13.682 43.4641 12.798ZM54.1432 8.586V15.554C54.1432 16.0393 54.2558 16.3947 54.4812 16.62C54.7238 16.828 55.1225 16.932 55.6772 16.932H57.3672V20H55.0792C52.0112 20 50.4772 18.5093 50.4772 15.528V8.586H48.7612V5.596H50.4772V2.034H54.1432V5.596H57.3672V8.586H54.1432ZM58.8153 12.928C58.8153 11.472 59.1013 10.198 59.6733 9.106C60.2626 8.014 61.0686 7.17333 62.0913 6.584C63.1313 5.99467 64.3099 5.7 65.6273 5.7C67.1179 5.7 68.3833 6.064 69.4233 6.792C70.4633 7.52 71.1913 8.44733 71.6073 9.574V5.882H72.7773V20H71.6073V16.282C71.1913 17.426 70.4546 18.3707 69.3973 19.116C68.3573 19.844 67.1006 20.208 65.6273 20.208C64.3099 20.208 63.1313 19.9133 62.0913 19.324C61.0686 18.7173 60.2626 17.868 59.6733 16.776C59.1013 15.6667 58.8153 14.384 58.8153 12.928ZM71.6073 12.928C71.6073 11.6973 71.3473 10.614 70.8273 9.678C70.3246 8.72467 69.6313 7.99667 68.7473 7.494C67.8633 6.974 66.8753 6.714 65.7833 6.714C64.6393 6.714 63.6339 6.96533 62.7673 7.468C61.9006 7.95333 61.2246 8.664 60.7393 9.6C60.2539 10.536 60.0113 11.6453 60.0113 12.928C60.0113 14.2107 60.2539 15.32 60.7393 16.256C61.2246 17.192 61.9006 17.9113 62.7673 18.414C63.6513 18.9167 64.6566 19.168 65.7833 19.168C66.8753 19.168 67.8633 18.9167 68.7473 18.414C69.6486 17.894 70.3506 17.166 70.8533 16.23C71.3559 15.2767 71.6073 14.176 71.6073 12.928ZM77.4274 9.6C77.8261 8.456 78.5454 7.52 79.5854 6.792C80.6427 6.064 81.9167 5.7 83.4074 5.7C84.7247 5.7 85.8947 5.99467 86.9174 6.584C87.9574 7.17333 88.7634 8.014 89.3354 9.106C89.9247 10.198 90.2194 11.472 90.2194 12.928C90.2194 14.384 89.9247 15.6667 89.3354 16.776C88.7634 17.868 87.9574 18.7173 86.9174 19.324C85.8947 19.9133 84.7247 20.208 83.4074 20.208C81.9341 20.208 80.6687 19.844 79.6114 19.116C78.5714 18.3707 77.8434 17.4347 77.4274 16.308V26.656H76.2574V5.882H77.4274V9.6ZM89.0234 12.928C89.0234 11.6453 88.7807 10.536 88.2954 9.6C87.8101 8.664 87.1254 7.95333 86.2414 7.468C85.3747 6.96533 84.3694 6.714 83.2254 6.714C82.1334 6.714 81.1454 6.974 80.2614 7.494C79.3774 7.99667 78.6841 8.72467 78.1814 9.678C77.6787 10.614 77.4274 11.6973 77.4274 12.928C77.4274 14.176 77.6787 15.2767 78.1814 16.23C78.6841 17.166 79.3774 17.894 80.2614 18.414C81.1454 18.9167 82.1334 19.168 83.2254 19.168C84.3694 19.168 85.3747 18.9167 86.2414 18.414C87.1254 17.9113 87.8101 17.192 88.2954 16.256C88.7807 15.32 89.0234 14.2107 89.0234 12.928ZM94.1415 9.6C94.5402 8.456 95.2595 7.52 96.2995 6.792C97.3569 6.064 98.6309 5.7 100.122 5.7C101.439 5.7 102.609 5.99467 103.632 6.584C104.672 7.17333 105.478 8.014 106.05 9.106C106.639 10.198 106.934 11.472 106.934 12.928C106.934 14.384 106.639 15.6667 106.05 16.776C105.478 17.868 104.672 18.7173 103.632 19.324C102.609 19.9133 101.439 20.208 100.122 20.208C98.6482 20.208 97.3829 19.844 96.3255 19.116C95.2855 18.3707 94.5575 17.4347 94.1415 16.308V26.656H92.9715V5.882H94.1415V9.6ZM105.738 12.928C105.738 11.6453 105.495 10.536 105.01 9.6C104.524 8.664 103.84 7.95333 102.956 7.468C102.089 6.96533 101.084 6.714 99.9395 6.714C98.8475 6.714 97.8595 6.974 96.9755 7.494C96.0915 7.99667 95.3982 8.72467 94.8955 9.678C94.3929 10.614 94.1415 11.6973 94.1415 12.928C94.1415 14.176 94.3929 15.2767 94.8955 16.23C95.3982 17.166 96.0915 17.894 96.9755 18.414C97.8595 18.9167 98.8475 19.168 99.9395 19.168C101.084 19.168 102.089 18.9167 102.956 18.414C103.84 17.9113 104.524 17.192 105.01 16.256C105.495 15.32 105.738 14.2107 105.738 12.928Z" fill="white"/>
</svg>
