<svg width="158" height="28" viewBox="0 0 158 28" fill="none" xmlns="http://www.w3.org/2000/svg">
<path d="M7.06 21.182C5.79467 21.182 4.65067 20.9653 3.628 20.532C2.62267 20.0987 1.82533 19.4747 1.236 18.66C0.646667 17.8453 0.343333 16.8833 0.326 15.774H4.226C4.278 16.5193 4.538 17.1087 5.006 17.542C5.49133 17.9753 6.15 18.192 6.982 18.192C7.83133 18.192 8.49867 17.9927 8.984 17.594C9.46933 17.178 9.712 16.6407 9.712 15.982C9.712 15.4447 9.54733 15.0027 9.218 14.656C8.88867 14.3093 8.47267 14.0407 7.97 13.85C7.48467 13.642 6.80867 13.4167 5.942 13.174C4.76333 12.8273 3.80133 12.4893 3.056 12.16C2.328 11.8133 1.69533 11.302 1.158 10.626C0.638 9.93267 0.378 9.014 0.378 7.87C0.378 6.79533 0.646667 5.85933 1.184 5.062C1.72133 4.26467 2.47533 3.658 3.446 3.242C4.41667 2.80867 5.526 2.592 6.774 2.592C8.646 2.592 10.1627 3.05133 11.324 3.97C12.5027 4.87133 13.1527 6.13667 13.274 7.766H9.27C9.23533 7.142 8.96667 6.63067 8.464 6.232C7.97867 5.816 7.32867 5.608 6.514 5.608C5.80333 5.608 5.23133 5.79 4.798 6.154C4.382 6.518 4.174 7.04667 4.174 7.74C4.174 8.22533 4.33 8.63267 4.642 8.962C4.97133 9.274 5.37 9.534 5.838 9.742C6.32333 9.93267 6.99933 10.158 7.866 10.418C9.04467 10.7647 10.0067 11.1113 10.752 11.458C11.4973 11.8047 12.1387 12.3247 12.676 13.018C13.2133 13.7113 13.482 14.6213 13.482 15.748C13.482 16.7187 13.2307 17.62 12.728 18.452C12.2253 19.284 11.4887 19.9513 10.518 20.454C9.54733 20.9393 8.39467 21.182 7.06 21.182ZM29.5078 13.486C29.5078 14.006 29.4731 14.474 29.4038 14.89H18.8737C18.9604 15.93 19.3244 16.7447 19.9657 17.334C20.6071 17.9233 21.3957 18.218 22.3318 18.218C23.6837 18.218 24.6457 17.6373 25.2178 16.476H29.1438C28.7278 17.8627 27.9304 19.0067 26.7517 19.908C25.5731 20.792 24.1258 21.234 22.4098 21.234C21.0231 21.234 19.7751 20.9307 18.6657 20.324C17.5737 19.7 16.7157 18.8247 16.0917 17.698C15.4851 16.5713 15.1817 15.2713 15.1817 13.798C15.1817 12.3073 15.4851 10.9987 16.0917 9.872C16.6984 8.74533 17.5477 7.87867 18.6397 7.272C19.7317 6.66533 20.9884 6.362 22.4098 6.362C23.7791 6.362 25.0011 6.65667 26.0758 7.246C27.1678 7.83533 28.0084 8.676 28.5978 9.768C29.2044 10.8427 29.5078 12.082 29.5078 13.486ZM25.7377 12.446C25.7204 11.51 25.3824 10.7647 24.7237 10.21C24.0651 9.638 23.2591 9.352 22.3057 9.352C21.4044 9.352 20.6418 9.62933 20.0177 10.184C19.4111 10.7213 19.0384 11.4753 18.8997 12.446H25.7377ZM49.5326 6.388C51.3006 6.388 52.722 6.934 53.7966 8.026C54.8886 9.10067 55.4346 10.6087 55.4346 12.55V21H51.7946V13.044C51.7946 11.9173 51.5086 11.0593 50.9366 10.47C50.3646 9.86333 49.5846 9.56 48.5966 9.56C47.6086 9.56 46.82 9.86333 46.2306 10.47C45.6586 11.0593 45.3726 11.9173 45.3726 13.044V21H41.7326V13.044C41.7326 11.9173 41.4466 11.0593 40.8746 10.47C40.3026 9.86333 39.5226 9.56 38.5346 9.56C37.5293 9.56 36.732 9.86333 36.1426 10.47C35.5706 11.0593 35.2846 11.9173 35.2846 13.044V21H31.6446V6.596H35.2846V8.338C35.7526 7.73133 36.3506 7.25467 37.0786 6.908C37.824 6.56133 38.6386 6.388 39.5226 6.388C40.6493 6.388 41.6546 6.63067 42.5386 7.116C43.4226 7.584 44.1073 8.26 44.5926 9.144C45.0606 8.312 45.7366 7.64467 46.6206 7.142C47.522 6.63933 48.4926 6.388 49.5326 6.388ZM60.2148 4.88C59.5734 4.88 59.0361 4.68067 58.6028 4.282C58.1868 3.866 57.9788 3.35467 57.9788 2.748C57.9788 2.14133 58.1868 1.63867 58.6028 1.24C59.0361 0.823999 59.5734 0.615999 60.2148 0.615999C60.8561 0.615999 61.3848 0.823999 61.8008 1.24C62.2341 1.63867 62.4508 2.14133 62.4508 2.748C62.4508 3.35467 62.2341 3.866 61.8008 4.282C61.3848 4.68067 60.8561 4.88 60.2148 4.88ZM62.0088 6.596V21H58.3688V6.596H62.0088ZM73.0671 6.388C74.7831 6.388 76.1698 6.934 77.2271 8.026C78.2844 9.10067 78.8131 10.6087 78.8131 12.55V21H75.1731V13.044C75.1731 11.9 74.8871 11.0247 74.3151 10.418C73.7431 9.794 72.9631 9.482 71.9751 9.482C70.9698 9.482 70.1724 9.794 69.5831 10.418C69.0111 11.0247 68.7251 11.9 68.7251 13.044V21H65.0851V6.596H68.7251V8.39C69.2104 7.766 69.8258 7.28067 70.5711 6.934C71.3338 6.57 72.1658 6.388 73.0671 6.388ZM80.8185 13.746C80.8185 12.29 81.1045 10.9987 81.6765 9.872C82.2659 8.74533 83.0545 7.87867 84.0425 7.272C85.0479 6.66533 86.1659 6.362 87.3965 6.362C88.4712 6.362 89.4072 6.57867 90.2045 7.012C91.0192 7.44533 91.6692 7.99133 92.1545 8.65V6.596H95.8205V21H92.1545V18.894C91.6865 19.57 91.0365 20.1333 90.2045 20.584C89.3899 21.0173 88.4452 21.234 87.3705 21.234C86.1572 21.234 85.0479 20.922 84.0425 20.298C83.0545 19.674 82.2659 18.7987 81.6765 17.672C81.1045 16.528 80.8185 15.2193 80.8185 13.746ZM92.1545 13.798C92.1545 12.914 91.9812 12.16 91.6345 11.536C91.2879 10.8947 90.8199 10.4093 90.2305 10.08C89.6412 9.73333 89.0085 9.56 88.3325 9.56C87.6565 9.56 87.0325 9.72467 86.4605 10.054C85.8885 10.3833 85.4205 10.8687 85.0565 11.51C84.7099 12.134 84.5365 12.8793 84.5365 13.746C84.5365 14.6127 84.7099 15.3753 85.0565 16.034C85.4205 16.6753 85.8885 17.1693 86.4605 17.516C87.0499 17.8627 87.6739 18.036 88.3325 18.036C89.0085 18.036 89.6412 17.8713 90.2305 17.542C90.8199 17.1953 91.2879 16.71 91.6345 16.086C91.9812 15.4447 92.1545 14.682 92.1545 13.798ZM102.496 8.832C102.964 8.06933 103.57 7.47133 104.316 7.038C105.078 6.60467 105.945 6.388 106.916 6.388V10.21H105.954C104.81 10.21 103.943 10.4787 103.354 11.016C102.782 11.5533 102.496 12.4893 102.496 13.824V21H98.8556V6.596H102.496V8.832ZM108.457 13.928C108.457 12.472 108.743 11.198 109.315 10.106C109.905 9.014 110.711 8.17333 111.733 7.584C112.773 6.99467 113.952 6.7 115.269 6.7C116.76 6.7 118.025 7.064 119.065 7.792C120.105 8.52 120.833 9.44733 121.249 10.574V6.882H122.419V21H121.249V17.282C120.833 18.426 120.097 19.3707 119.039 20.116C117.999 20.844 116.743 21.208 115.269 21.208C113.952 21.208 112.773 20.9133 111.733 20.324C110.711 19.7173 109.905 18.868 109.315 17.776C108.743 16.6667 108.457 15.384 108.457 13.928ZM121.249 13.928C121.249 12.6973 120.989 11.614 120.469 10.678C119.967 9.72467 119.273 8.99667 118.389 8.494C117.505 7.974 116.517 7.714 115.425 7.714C114.281 7.714 113.276 7.96533 112.409 8.468C111.543 8.95333 110.867 9.664 110.381 10.6C109.896 11.536 109.653 12.6453 109.653 13.928C109.653 15.2107 109.896 16.32 110.381 17.256C110.867 18.192 111.543 18.9113 112.409 19.414C113.293 19.9167 114.299 20.168 115.425 20.168C116.517 20.168 117.505 19.9167 118.389 19.414C119.291 18.894 119.993 18.166 120.495 17.23C120.998 16.2767 121.249 15.176 121.249 13.928ZM127.329 10.6C127.728 9.456 128.447 8.52 129.487 7.792C130.545 7.064 131.819 6.7 133.309 6.7C134.627 6.7 135.797 6.99467 136.819 7.584C137.859 8.17333 138.665 9.014 139.237 10.106C139.827 11.198 140.121 12.472 140.121 13.928C140.121 15.384 139.827 16.6667 139.237 17.776C138.665 18.868 137.859 19.7173 136.819 20.324C135.797 20.9133 134.627 21.208 133.309 21.208C131.836 21.208 130.571 20.844 129.513 20.116C128.473 19.3707 127.745 18.4347 127.329 17.308V27.656H126.159V6.882H127.329V10.6ZM138.925 13.928C138.925 12.6453 138.683 11.536 138.197 10.6C137.712 9.664 137.027 8.95333 136.143 8.468C135.277 7.96533 134.271 7.714 133.127 7.714C132.035 7.714 131.047 7.974 130.163 8.494C129.279 8.99667 128.586 9.72467 128.083 10.678C127.581 11.614 127.329 12.6973 127.329 13.928C127.329 15.176 127.581 16.2767 128.083 17.23C128.586 18.166 129.279 18.894 130.163 19.414C131.047 19.9167 132.035 20.168 133.127 20.168C134.271 20.168 135.277 19.9167 136.143 19.414C137.027 18.9113 137.712 18.192 138.197 17.256C138.683 16.32 138.925 15.2107 138.925 13.928ZM144.304 10.6C144.702 9.456 145.422 8.52 146.462 7.792C147.519 7.064 148.793 6.7 150.284 6.7C151.601 6.7 152.771 6.99467 153.794 7.584C154.834 8.17333 155.64 9.014 156.212 10.106C156.801 11.198 157.096 12.472 157.096 13.928C157.096 15.384 156.801 16.6667 156.212 17.776C155.64 18.868 154.834 19.7173 153.794 20.324C152.771 20.9133 151.601 21.208 150.284 21.208C148.81 21.208 147.545 20.844 146.488 20.116C145.448 19.3707 144.72 18.4347 144.304 17.308V27.656H143.134V6.882H144.304V10.6ZM155.9 13.928C155.9 12.6453 155.657 11.536 155.172 10.6C154.686 9.664 154.002 8.95333 153.118 8.468C152.251 7.96533 151.246 7.714 150.102 7.714C149.01 7.714 148.022 7.974 147.138 8.494C146.254 8.99667 145.56 9.72467 145.058 10.678C144.555 11.614 144.304 12.6973 144.304 13.928C144.304 15.176 144.555 16.2767 145.058 17.23C145.56 18.166 146.254 18.894 147.138 19.414C148.022 19.9167 149.01 20.168 150.102 20.168C151.246 20.168 152.251 19.9167 153.118 19.414C154.002 18.9113 154.686 18.192 155.172 17.256C155.657 16.32 155.9 15.2107 155.9 13.928Z" fill="white"/>
</svg>
